<svg xmlns="http://www.w3.org/2000/svg" xmlns:xlink="http://www.w3.org/1999/xlink" viewBox="0 0 1134.26 346.09"><defs><style>.cls-1{font-size:100.08px;fill:none;}.cls-1,.cls-5{font-family:CenturyGothic-Bold, Century Gothic;font-weight:700;}.cls-2{fill:url(#linear-gradient);}.cls-3{fill:url(#linear-gradient-2);}.cls-4{fill:url(#linear-gradient-3);}.cls-5{font-size:100.24px;fill:#fff;}.cls-6{clip-path:url(#clip-path);}.cls-7{fill:url(#linear-gradient-4);}</style><linearGradient id="linear-gradient" x1="231.12" y1="55.46" x2="342.05" y2="55.46" gradientUnits="userSpaceOnUse"><stop offset="0" stop-color="#f6921e"/><stop offset="0.49" stop-color="#f05a28"/><stop offset="1" stop-color="#be1e2d"/></linearGradient><linearGradient id="linear-gradient-2" x1="327.85" y1="143.5" x2="471.99" y2="143.5" xlink:href="#linear-gradient"/><linearGradient id="linear-gradient-3" x1="0" y1="274.66" x2="321.72" y2="274.66" xlink:href="#linear-gradient"/><clipPath id="clip-path"><text class="cls-1" transform="translate(339.18 315.4) scale(1.05 1)">BATTLE</text></clipPath><linearGradient id="linear-gradient-4" x1="334.67" y1="281.34" x2="1134.26" y2="281.34" xlink:href="#linear-gradient"/></defs><title>ludo</title><g id="Layer_2" data-name="Layer 2"><g id="Layer_1-2" data-name="Layer 1"><path class="cls-2" d="M342,99.65V11.28A11.29,11.29,0,0,0,330.77,0H242.4a11.29,11.29,0,0,0-11.28,11.28V99.65a11.29,11.29,0,0,0,11.28,11.28h88.37A11.29,11.29,0,0,0,342,99.65Zm-86.29-1.72a11.63,11.63,0,1,1,11.63-11.63A11.64,11.64,0,0,1,255.75,97.92Zm0-61.66a11.63,11.63,0,1,1,11.63-11.63A11.64,11.64,0,0,1,255.75,36.26Zm31.6,30A11.63,11.63,0,1,1,299,54.59,11.64,11.64,0,0,1,287.36,66.22Zm30.06,31.7A11.63,11.63,0,1,1,329,86.29,11.64,11.64,0,0,1,317.41,97.92Zm0-61.66A11.63,11.63,0,1,1,329,24.63,11.64,11.64,0,0,1,317.41,36.26Z"/><path class="cls-3" d="M471.68,126.47a11.2,11.2,0,0,0-5-7L391.41,73.1a11.3,11.3,0,0,0-15.52,3.68L329.52,152a11.3,11.3,0,0,0,3.68,15.52l75.23,46.36A11.3,11.3,0,0,0,424,210.22L470.32,135A11.2,11.2,0,0,0,471.68,126.47Zm-93.15-22.7a11.63,11.63,0,1,1,5.21,7.21A11.55,11.55,0,0,1,378.53,103.77Zm11.19,42.08a11.63,11.63,0,1,1,5.21,7.21A11.55,11.55,0,0,1,389.72,145.85ZM419.89,192a11.63,11.63,0,1,1-3.8-16A11.56,11.56,0,0,1,419.89,192Z"/><rect class="cls-4" y="205.95" width="321.72" height="137.4" rx="12" ry="12"/><text class="cls-5" transform="translate(30.67 314.62) scale(1.05 1)">LUDO</text><g class="cls-6"><rect class="cls-7" x="334.67" y="216.59" width="799.59" height="129.5" rx="12" ry="12"/></g></g></g></svg>