<svg xmlns="http://www.w3.org/2000/svg" xmlns:xlink="http://www.w3.org/1999/xlink" viewBox="0 0 288 288"><defs><style>.cls-1{isolation:isolate;}.cls-2{fill:url(#radial-gradient);}.cls-3{opacity:0.2;mix-blend-mode:overlay;}</style><radialGradient id="radial-gradient" cx="144" cy="144" r="192.64" gradientUnits="userSpaceOnUse"><stop offset="0" stop-color="#a64dff"/><stop offset="0.12" stop-color="#a149f7"/><stop offset="0.31" stop-color="#923ee1"/><stop offset="0.54" stop-color="#7b2dbe"/><stop offset="0.8" stop-color="#5a158d"/><stop offset="1" stop-color="#3e0062"/></radialGradient></defs><title>sv2</title><g class="cls-1"><g id="Layer_2" data-name="Layer 2"><g id="Layer_1-2" data-name="Layer 1"><rect class="cls-2" width="288" height="288"/><path class="cls-3" d="M155.28,288,144,143.92,132.72,288Zm-48.46,0L144,143.92,81.58,288ZM0,255l144-111L0,222.7Zm48.93,33L144,143.92,12.57,288ZM288,222.7,144,143.92,288,255Zm0-54.07-144-24.7,144,48.71ZM206.42,288,144,143.92,181.18,288ZM0,192.63l144-48.71L0,168.62ZM275.43,288,144,143.92,239.07,288ZM108.25,0,144,143.92,131.42,0ZM288,66.84,144,143.92,288,93.76ZM288,0H277.7L144,143.92,288,30.79ZM207.91,0,144,143.92,237.1,0ZM288,120.56,144,143.92l144-.65ZM0,143.27l144,.65L0,120.56ZM156.58,0,144,143.92,179.75,0ZM0,0V30.79L144,143.92,10.3,0ZM0,93.76l144,50.17L0,66.84ZM50.9,0,144,143.92,80.09,0Z"/></g></g></g></svg>